<?xml version="1.0" encoding="UTF-8"?>
<!-- Generator: visioncortex VTracer 0.6.2 -->
<svg version="1.1" xmlns="http://www.w3.org/2000/svg" width="1280" height="1272">
<path d="M0 0 C422.4 0 844.8 0 1280 0 C1280 419.76 1280 839.52 1280 1272 C857.6 1272 435.2 1272 0 1272 C0 852.24 0 432.48 0 0 Z " fill="#7FB5B8" transform="translate(0,0)"/>
<path d="M0 0 C422.4 0 844.8 0 1280 0 C1280 419.76 1280 839.52 1280 1272 C857.6 1272 435.2 1272 0 1272 C0 852.24 0 432.48 0 0 Z M350.0625 73.375 C349.01876221 73.59486572 347.97502441 73.81473145 346.8996582 74.04125977 C343.92847102 74.67510384 340.9634218 75.33089111 338 76 C337.23075195 76.17289551 336.46150391 76.34579102 335.66894531 76.52392578 C331.08190928 77.57303151 326.53577196 78.75061907 322 80 C320.90703613 80.29463135 320.90703613 80.29463135 319.79199219 80.59521484 C291.32020169 88.35428469 263.10840566 100.46421344 238 116 C237.18998535 116.49725586 236.3799707 116.99451172 235.54541016 117.50683594 C217.88545315 128.39454742 201.49583319 140.21042867 186 154 C185.4848584 154.45729492 184.9697168 154.91458984 184.43896484 155.38574219 C173.72009426 164.94497894 163.17519144 174.92946385 154 186 C152.95972656 187.24136719 152.95972656 187.24136719 151.8984375 188.5078125 C143.77806339 198.30249055 136.13286664 208.4638702 129 219 C128.33613281 219.97710937 127.67226562 220.95421875 126.98828125 221.9609375 C117.94096133 235.63749651 110.18219482 250.14465174 103.125 264.9375 C102.79242188 265.63254639 102.45984375 266.32759277 102.1171875 267.04370117 C96.41808655 279.25181995 91.7778789 291.92253092 87.5 304.6875 C87.26321533 305.39388611 87.02643066 306.10027222 86.7824707 306.82806396 C75.78209193 339.91522745 71.83584593 373.73351947 71.86628723 408.4589386 C71.86441573 410.49925582 71.86211368 412.53957269 71.85942191 414.579889 C71.85333925 420.15098751 71.85343332 425.72207093 71.85461628 431.293172 C71.85482119 437.31595915 71.84929287 443.33874157 71.84455872 449.36152649 C71.83627051 461.14926862 71.83349168 472.93700701 71.83294634 484.72475145 C71.83248561 494.31417916 71.83042112 503.90360527 71.82724571 513.49303246 C71.82634807 516.26010312 71.82545825 519.0271738 71.82457083 521.79424447 C71.82434979 522.48228865 71.82412874 523.17033282 71.82390099 523.87922682 C71.81775162 543.21813863 71.81379992 562.55704988 71.81424427 581.89596272 C71.81425985 582.62421548 71.81427543 583.35246825 71.81429148 584.10278929 C71.81437458 587.79328831 71.81447362 591.48378732 71.81457619 595.17428634 C71.81459613 595.90713819 71.81461608 596.63999004 71.81463663 597.39504951 C71.81467706 598.87705461 71.81471886 600.35905971 71.81476202 601.84106481 C71.81537419 624.8768783 71.80787684 647.91267705 71.79418945 670.94848633 C71.77879146 696.87346196 71.7702255 722.79842791 71.77115268 748.7234084 C71.7712273 751.49393698 71.77127601 754.26446555 71.77130699 757.03499413 C71.77131865 757.71708626 71.7713303 758.39917839 71.77134231 759.10193999 C71.77137294 770.02617479 71.76501716 780.95039669 71.75637473 791.87462767 C71.74785121 802.87704946 71.74711462 813.87945492 71.75348405 824.88187859 C71.75673103 830.82937834 71.75687253 836.77683184 71.7481308 842.72432709 C71.38221468 883.54122202 71.38221468 883.54122202 76.1875 924 C76.51004761 925.72669922 76.51004761 925.72669922 76.83911133 927.48828125 C85.68164993 973.15133773 103.85695002 1016.55942854 130 1055 C130.4213623 1055.62100586 130.84272461 1056.24201172 131.27685547 1056.88183594 C137.32451563 1065.7278082 143.95568415 1073.93224413 151 1082 C151.95712891 1083.10794922 151.95712891 1083.10794922 152.93359375 1084.23828125 C154.6099766 1086.17018666 156.30283604 1088.08634132 158 1090 C158.63808594 1090.73089844 159.27617187 1091.46179687 159.93359375 1092.21484375 C169.0037682 1102.48327977 178.5363839 1112.36176451 189.30078125 1120.86328125 C192.19733381 1123.1562107 195.00064276 1125.54166391 197.8125 1127.9375 C210.89394004 1138.85280249 225.25369482 1148.49709016 240 1157 C240.59425781 1157.34756348 241.18851563 1157.69512695 241.80078125 1158.05322266 C268.76481995 1173.76230142 297.75791259 1185.33656005 328 1193 C329.45986328 1193.40605469 329.45986328 1193.40605469 330.94921875 1193.8203125 C337.51764963 1195.600629 344.18322414 1196.84840867 350.875 1198.0625 C351.74084717 1198.22500244 352.60669434 1198.38750488 353.4987793 1198.55493164 C371.13971396 1201.6429194 388.94460524 1202.29790371 406.81202698 1202.26069641 C408.91399566 1202.26372614 411.01596324 1202.26761969 413.11792892 1202.27228898 C418.82705747 1202.28247213 424.53612254 1202.28041217 430.24525607 1202.27610838 C436.42885599 1202.27362333 442.61244133 1202.2826773 448.79603577 1202.29014587 C460.8852944 1202.3028463 472.97452553 1202.30469805 485.06378771 1202.30234561 C494.89949613 1202.30050559 504.73519807 1202.30228735 514.57090569 1202.30657005 C515.98916881 1202.30717248 517.40743193 1202.30777368 518.82569505 1202.30837366 C520.96348014 1202.30928101 523.10126523 1202.31018969 525.23905032 1202.31110601 C545.08988914 1202.31952351 564.94072554 1202.32387962 584.7915659 1202.31969929 C585.53834094 1202.31954291 586.28511599 1202.31938654 587.05452058 1202.31922542 C590.83857162 1202.31841976 594.62262265 1202.31757399 598.40667368 1202.31671212 C599.15805671 1202.31654103 599.90943974 1202.31636994 600.68359195 1202.31619367 C602.20306784 1202.31584701 603.72254372 1202.31549848 605.2420196 1202.31514808 C628.86977589 1202.30979437 652.49749482 1202.3177163 676.12524414 1202.33618164 C702.73662558 1202.35695489 729.3479839 1202.36761416 755.95937389 1202.36360615 C758.80371058 1202.36321088 761.64804726 1202.36284932 764.49238396 1202.36250877 C765.19261243 1202.36241804 765.8928409 1202.36232731 766.61428841 1202.36223383 C777.12831657 1202.36107385 787.64232118 1202.36767022 798.15634346 1202.37832069 C810.13235954 1202.39044056 822.10832246 1202.39157933 834.08434392 1202.37953053 C840.18215255 1202.37367922 846.27986096 1202.37243731 852.37766266 1202.38453293 C907.89714124 1202.48685216 962.66820908 1197.01242149 1012.7421875 1170.69921875 C1015.32566482 1169.35172158 1017.88205257 1168.13251377 1020.5625 1167 C1031.22520581 1162.3720187 1041.35635533 1156.45725895 1051 1150 C1051.68046387 1149.55027832 1052.36092773 1149.10055664 1053.06201172 1148.63720703 C1068.36402708 1138.50474712 1082.49155971 1127.42314679 1096 1115 C1097.64556862 1113.54136797 1099.29140772 1112.08304105 1100.9375 1110.625 C1130.73737985 1083.77699504 1154.02924714 1050.68362284 1172 1015 C1172.38397949 1014.2467041 1172.76795898 1013.4934082 1173.16357422 1012.71728516 C1179.99074937 999.24052875 1185.15981746 985.29711839 1190 971 C1190.30067383 970.11715332 1190.60134766 969.23430664 1190.91113281 968.32470703 C1194.4942329 957.70972137 1197.33975505 947.06513346 1199.57080078 936.08740234 C1199.97465962 934.12324246 1200.4063386 932.16486151 1200.83984375 930.20703125 C1202.31189217 923.37409005 1203.38149712 916.5693169 1204.125 909.625 C1204.23835693 908.56647827 1204.23835693 908.56647827 1204.35400391 907.48657227 C1205.83273453 892.46393757 1206.14823435 877.47530457 1206.14044189 862.39234924 C1206.14303189 860.36013211 1206.14604679 858.32791548 1206.1494453 856.29569954 C1206.15744441 850.75596776 1206.15930087 845.21624899 1206.16004276 839.67651212 C1206.16190583 833.68359942 1206.16945943 827.69069328 1206.17617798 821.69778442 C1206.19041694 807.93081055 1206.19628173 794.16383769 1206.20086992 780.39685813 C1206.20321411 773.57692549 1206.20681768 766.75699368 1206.2105653 759.93706168 C1206.22339533 736.53984989 1206.23411388 713.14263855 1206.2375679 689.74542332 C1206.23778953 688.27944614 1206.23801131 686.81346897 1206.23823325 685.3474918 C1206.23845389 683.87820297 1206.23867437 682.40891415 1206.2388947 680.93962532 C1206.23933722 677.99254644 1206.23978435 675.04546756 1206.24023438 672.09838867 C1206.24039846 671.00235028 1206.24039846 671.00235028 1206.24056586 669.88416971 C1206.2441911 646.22702422 1206.2600938 622.56990947 1206.28342474 598.91277574 C1206.30811116 573.83482412 1206.32174485 548.75689004 1206.32293582 523.67892593 C1206.32310724 520.91727221 1206.32332266 518.15561849 1206.32357025 515.39396477 C1206.32362602 514.71408817 1206.32368179 514.03421157 1206.32373925 513.33373265 C1206.32488217 502.46882871 1206.33583895 491.60395674 1206.35045731 480.73906354 C1206.36494049 469.7837892 1206.36774438 458.82855702 1206.36001733 447.87327582 C1206.3561469 441.9571524 1206.35686064 436.04113477 1206.37107468 430.1250248 C1206.49403803 375.68200583 1201.06458286 325.88578181 1180 275 C1179.66033203 274.17773926 1179.32066406 273.35547852 1178.97070312 272.50830078 C1173.3408645 259.06535745 1166.49114651 246.48858918 1159 234 C1158.34016113 232.89350098 1158.34016113 232.89350098 1157.66699219 231.76464844 C1149.46042368 218.07439904 1140.09291373 205.35617318 1130 193 C1129.02740234 191.76636719 1129.02740234 191.76636719 1128.03515625 190.5078125 C1116.68328906 176.25984512 1103.85695145 162.82333742 1090 151 C1088.65035156 149.81664062 1088.65035156 149.81664062 1087.2734375 148.609375 C1074.10896424 137.1532685 1060.06218722 126.81644853 1045 118 C1043.79024328 117.25360419 1042.58198078 116.50478268 1041.375 115.75390625 C1023.5633281 104.80057282 1004.44294188 95.53974821 984.61181641 88.88183594 C981.60079857 87.86521634 978.60398637 86.81071361 975.60546875 85.7578125 C942.48593015 74.26355117 909.283802 68.83652552 874.26785278 68.86628723 C872.1735012 68.86441665 870.07914996 68.86211497 867.98479927 68.85942191 C862.25516987 68.85332783 856.52555512 68.85343468 850.79592323 68.85461628 C844.60614931 68.8548209 838.41638002 68.84929565 832.22660828 68.84455872 C820.10805662 68.83626428 807.9895116 68.83349141 795.87095769 68.83294634 C786.01448456 68.83248592 776.158013 68.83042301 766.30154037 68.82724571 C763.45919128 68.82634809 760.61684219 68.82545828 757.7744931 68.82457083 C757.0677662 68.82434979 756.3610393 68.82412874 755.63289644 68.82390099 C735.76456277 68.81775024 715.89622964 68.81380006 696.02789497 68.81424427 C694.90523851 68.81426764 694.90523851 68.81426764 693.75990213 68.81429148 C689.96696243 68.81437458 686.17402273 68.81447362 682.38108303 68.81457619 C681.62786469 68.81459613 680.87464636 68.81461608 680.09860323 68.81463663 C678.57541183 68.81467706 677.05222043 68.81471886 675.52902903 68.81476202 C651.84909915 68.8153743 628.1691836 68.80787554 604.48925781 68.79418945 C577.85053538 68.77879944 551.21182236 68.77022502 524.5730952 68.77115268 C521.72760256 68.7712273 518.88210992 68.77127601 516.03661728 68.77130699 C515.33604892 68.77131865 514.63548056 68.7713303 513.91368285 68.77134231 C502.68190088 68.77137297 491.45013143 68.76501062 480.21835317 68.75637473 C468.91104095 68.74786116 457.60375183 68.74710732 446.29643638 68.75348405 C440.18122559 68.75673606 434.06605979 68.75685397 427.95085335 68.7481308 C422.3371916 68.74020594 416.7236101 68.74175758 411.10995017 68.75041493 C409.09446472 68.75193688 407.0789731 68.75018394 405.06349494 68.74455485 C386.65208894 68.69659769 368.09811326 69.40514993 350.0625 73.375 Z " fill="#FAFDFF" transform="translate(0,0)"/>
<path d="M0 0 C2.15401134 1.95240436 4.34918351 3.83902359 6.56640625 5.71875 C43.21388738 37.74424708 66.20105561 91.77772284 69.5630188 139.78530884 C69.85353407 146.13738589 69.85919302 152.48640588 69.81640625 158.84375 C69.81184418 160.28817474 69.81184418 160.28817474 69.80718994 161.76177979 C69.73808668 176.58458234 68.96687043 190.7128086 65.37890625 205.15625 C65.15396484 206.09500977 64.92902344 207.03376953 64.69726562 208.00097656 C60.68430577 224.48948791 55.40254298 240.16194724 47.37890625 255.15625 C46.91871094 256.0328125 46.45851563 256.909375 45.984375 257.8125 C39.96018666 269.09748091 33.67804069 280.37303505 25.37890625 290.15625 C24.86199219 290.77113281 24.34507812 291.38601563 23.8125 292.01953125 C22.03081965 294.09314959 20.2103178 296.1263775 18.37890625 298.15625 C17.51523437 299.12433594 16.6515625 300.09242188 15.76171875 301.08984375 C2.97422852 315.29623771 -10.51016142 326.82525784 -26.62109375 337.15625 C-27.61326904 337.79820312 -27.61326904 337.79820312 -28.62548828 338.453125 C-51.91793712 353.4030062 -76.65387946 361.63229097 -103.62109375 367.15625 C-104.33974609 367.30610352 -105.05839844 367.45595703 -105.79882812 367.61035156 C-125.72144505 371.58005472 -147.61188779 369.78325146 -167.62109375 367.15625 C-168.6869873 367.02742432 -168.6869873 367.02742432 -169.77441406 366.89599609 C-183.52624613 365.17620739 -198.38777154 361.37781115 -210.75268555 355.06860352 C-214.7795516 353.10226372 -218.26076161 353.76267076 -222.40234375 354.9609375 C-240.31422125 361.38970542 -256.76705307 372.11044396 -269.62109375 386.15625 C-270.23597656 386.82527344 -270.85085938 387.49429687 -271.484375 388.18359375 C-277.07400818 394.41956568 -281.51350557 400.86596732 -285.62109375 408.15625 C-285.95326904 408.73737549 -286.28544434 409.31850098 -286.62768555 409.91723633 C-294.49935401 423.26619946 -294.49935401 423.26619946 -297.62109375 438.15625 C-298.28109375 438.15625 -298.94109375 438.15625 -299.62109375 438.15625 C-299.62109375 437.49625 -299.62109375 436.83625 -299.62109375 436.15625 C-300.61109375 435.82625 -301.60109375 435.49625 -302.62109375 435.15625 C-319.56686202 406.80144962 -326.01568744 367.82215751 -322.81103516 335.33203125 C-322.60590477 332.98226 -322.49078813 330.63741599 -322.3828125 328.28125 C-321.52823486 312.94895328 -317.68481193 298.69008152 -313.43725586 284.01513672 C-313.16792236 283.0717041 -312.89858887 282.12827148 -312.62109375 281.15625 C-312.38664551 280.44339844 -312.15219727 279.73054688 -311.91064453 278.99609375 C-311.35281056 275.45154332 -313.86599487 272.29318392 -315.55859375 269.28125 C-315.97101318 268.52094482 -316.38343262 267.76063965 -316.80834961 266.97729492 C-318.70495079 263.50364642 -320.64938601 260.07052777 -322.72265625 256.69921875 C-328.52761958 247.13606202 -332.16089299 237.16942035 -335.76245117 226.61010742 C-336.52090678 224.44256766 -337.3418884 222.31647776 -338.19140625 220.18359375 C-344.23118838 204.18513311 -345.7984538 186.10624906 -346.62109375 169.15625 C-346.66637207 168.29499512 -346.71165039 167.43374023 -346.75830078 166.54638672 C-349.11587814 115.02493678 -326.28620547 61.21827943 -293.62109375 22.15625 C-292.94046875 21.29257812 -292.25984375 20.42890625 -291.55859375 19.5390625 C-281.9121756 7.37768533 -271.04554035 -2.60717494 -258.62109375 -11.84375 C-257.89519043 -12.38741211 -257.16928711 -12.93107422 -256.42138672 -13.49121094 C-247.80360749 -19.92304362 -239.29945287 -26.08659043 -229.62109375 -30.84375 C-228.75355469 -31.30652344 -227.88601563 -31.76929688 -226.9921875 -32.24609375 C-152.65591153 -71.22352913 -61.17210319 -55.90689869 0 0 Z " fill="#FAFDFF" transform="translate(644.62109375,371.84375)"/>
<path d="M0 0 C3.23906841 -0.0833737 6.42342304 0.01825521 9.66015625 0.171875 C10.39266602 0.19169434 11.12517578 0.21151367 11.87988281 0.23193359 C33.69428072 0.91608471 55.44498806 7.16299323 74.296875 18.203125 C77.05594318 19.8181893 79.74072365 21.14371545 82.66015625 22.421875 C95.20095384 28.63868064 106.2484571 38.98661153 115.66015625 49.171875 C116.28921875 49.8215625 116.91828125 50.47125 117.56640625 51.140625 C130.66905427 65.19619288 140.15539127 84.25058372 146.66015625 102.171875 C147.33884766 103.92177734 147.33884766 103.92177734 148.03125 105.70703125 C158.44264149 134.09892674 157.13280949 168.15990799 144.90649414 195.84008789 C141.38127236 203.42695946 137.16957271 210.26209464 132.25 217.0234375 C128.91974567 223.61848662 132.82160915 231.58760094 134.84375 238.32421875 C142.61648378 265.13785066 138.94400243 298.68221391 125.58642578 323.13769531 C124.62567001 324.82419576 123.64472592 326.49916524 122.66015625 328.171875 C118.9589129 325.70437943 118.687583 324.10563316 117.16015625 319.984375 C109.14310769 299.93258078 92.92826746 284.90634744 73.36889648 276.47998047 C71.47300808 275.68524055 69.58129385 274.90372573 67.66015625 274.171875 C66.72034912 273.78 65.78054199 273.388125 64.81225586 272.984375 C61.02747132 272.00879116 59.18091391 272.48662638 55.4921875 273.69140625 C54.35201172 274.05427734 53.21183594 274.41714844 52.03710938 274.79101562 C50.86083984 275.18482422 49.68457031 275.57863281 48.47265625 275.984375 C47.28478516 276.36658203 46.09691406 276.74878906 44.87304688 277.14257812 C41.7962042 278.1356147 38.72654225 279.1470917 35.66015625 280.171875 C28.81621371 282.45318918 20.83187877 281.92557108 13.66015625 282.171875 C12.0683252 282.2330249 12.0683252 282.2330249 10.44433594 282.29541016 C-14.7283031 283.15648296 -37.41138995 279.79687343 -60.33984375 269.171875 C-61.31268311 268.73488281 -61.31268311 268.73488281 -62.30517578 268.2890625 C-71.99638212 263.9125536 -80.68007509 258.27751323 -89.33984375 252.171875 C-90.12617187 251.63304687 -90.9125 251.09421875 -91.72265625 250.5390625 C-104.74326621 241.08303017 -115.65116 228.62262581 -124.33984375 215.171875 C-125.1596875 213.97111328 -125.1596875 213.97111328 -125.99609375 212.74609375 C-139.73901023 191.58346438 -145.78468167 166.07443468 -145.77734375 141.171875 C-145.77841125 140.40007904 -145.77947876 139.62828308 -145.78057861 138.83309937 C-145.75562064 126.31213852 -144.54053169 115.04471048 -140.33984375 103.171875 C-139.87728394 101.76312594 -139.41504161 100.35427259 -138.953125 98.9453125 C-127.79159172 66.18931275 -104.49841667 40.23100515 -75.33984375 22.171875 C-74.30778809 21.50998169 -74.30778809 21.50998169 -73.25488281 20.8347168 C-51.55824048 6.97181907 -25.38803262 1.30651864 0 0 Z " fill="#FAFDFF" transform="translate(813.33984375,646.828125)"/>
<path d="M0 0 C0.81500977 0.73452393 0.81500977 0.73452393 1.64648438 1.48388672 C2.51789063 2.26634766 3.38929688 3.04880859 4.28710938 3.85498047 C27.42668284 25.90230134 38.1547401 54.46503768 39.82617188 85.85888672 C40.27632966 105.86589925 37.27290832 128.81710558 25.64648438 145.48388672 C25.0417668 146.76568124 24.45794284 148.05756242 23.89648438 149.35888672 C20.94755006 155.45417354 16.05858903 160.41407702 11.64648438 165.48388672 C11.02257812 166.23154297 10.39867187 166.97919922 9.75585938 167.74951172 C-7.2392363 187.92126079 -33.75103738 201.54840774 -60.05053711 204.32714844 C-76.39020533 205.43920897 -92.71129084 205.69796165 -108.35351562 200.48388672 C-109.33070557 200.17040283 -109.33070557 200.17040283 -110.32763672 199.85058594 C-127.12544322 194.39303625 -142.05430303 186.09095298 -155.35351562 174.48388672 C-156.56394531 173.44361328 -156.56394531 173.44361328 -157.79882812 172.38232422 C-175.96573287 155.51770655 -189.8580398 127.90031517 -191.59399414 103.04003906 C-192.58979189 74.47978699 -189.49431277 49.9761082 -173.35351562 25.48388672 C-172.66128906 24.43201172 -171.9690625 23.38013672 -171.25585938 22.29638672 C-164.48202531 12.60024253 -156.48941962 3.98510555 -147.35351562 -3.51611328 C-146.60328125 -4.13873047 -145.85304688 -4.76134766 -145.08007812 -5.40283203 C-101.46070953 -39.32136313 -40.95740486 -36.40781205 0 0 Z " fill="#FAFDFF" transform="translate(940.353515625,324.51611328125)"/>
<path d="M0 0 C1.40670456 -0.0049926 1.40670456 -0.0049926 2.84182739 -0.01008606 C4.81332921 -0.01511775 6.78483943 -0.01749556 8.75634766 -0.01733398 C11.74265813 -0.01952016 14.72859841 -0.03771545 17.71484375 -0.05664062 C35.14533103 -0.10828044 52.05663363 0.82867528 65.4453125 13.29296875 C75.9748349 24.39945128 80.52777119 36.87176019 80.33691406 51.9831543 C80.33749817 53.21371048 80.33808228 54.44426666 80.33868408 55.71211243 C80.33639272 59.05059701 80.3164863 62.38806309 80.28838825 65.72636771 C80.26319621 69.2283393 80.2610187 72.73032787 80.25628662 76.2323761 C80.24390865 82.84784088 80.21115823 89.46303777 80.17088866 96.07838517 C80.12600849 103.61654833 80.1041433 111.15472502 80.08410692 118.69298875 C80.04242014 134.18480329 79.97217033 149.67635133 79.8828125 165.16796875 C62.037504 165.19129701 44.19219944 165.20894757 26.34687901 165.21978092 C18.06156976 165.22494403 9.77626997 165.23198702 1.4909668 165.2434082 C-5.72788358 165.25335458 -12.94672711 165.25982207 -20.16558415 165.26205724 C-23.99027005 165.26336443 -27.81493637 165.26645078 -31.63961601 165.27369881 C-35.23544537 165.28045829 -38.83124696 165.28258586 -42.42708206 165.28107643 C-44.38424787 165.28148511 -46.34141062 165.28688068 -48.29856873 165.29238892 C-50.02973938 165.29032692 -50.02973938 165.29032692 -51.79588318 165.28822327 C-52.8052465 165.28914506 -53.81460981 165.29006685 -54.8545599 165.29101658 C-57.1171875 165.16796875 -57.1171875 165.16796875 -58.1171875 164.16796875 C-58.22176148 162.6159248 -58.2568204 161.05914577 -58.26435852 159.50360107 C-58.27151382 158.49448669 -58.27866913 157.48537231 -58.28604126 156.44567871 C-58.28873016 155.32890747 -58.29141907 154.21213623 -58.29418945 153.06152344 C-58.30076065 151.89232361 -58.30733185 150.72312378 -58.31410217 149.51849365 C-58.33390661 145.62561707 -58.34551997 141.73275396 -58.35546875 137.83984375 C-58.3595166 136.49759145 -58.36363353 135.15533935 -58.36781883 133.81308746 C-58.38689397 127.49713925 -58.40111128 121.18120278 -58.4094308 114.86523128 C-58.41916534 107.59570766 -58.44537491 100.32649164 -58.48593169 93.05707622 C-58.51624227 87.42887149 -58.53091434 81.80075404 -58.53421181 76.17246938 C-58.53654854 72.81670283 -58.54733797 69.46152237 -58.57067299 66.10579681 C-58.59517632 62.34600383 -58.59407753 58.58699781 -58.5871582 54.82714844 C-58.59996826 53.73466797 -58.61277832 52.6421875 -58.62597656 51.51660156 C-58.52648675 36.57336149 -52.97349181 24.32574633 -42.9921875 13.35546875 C-37.80159273 8.38745523 -31.76652828 5.71257218 -25.1171875 3.16796875 C-23.71533203 2.62462891 -23.71533203 2.62462891 -22.28515625 2.0703125 C-15.02981961 0.00374929 -7.49632863 0.00946366 0 0 Z " fill="#7FB5B8" transform="translate(495.1171875,505.83203125)"/>
<path d="M0 0 C6.85191376 4.34832988 9.33456362 10.32346425 11.125 18.0625 C12.80713787 26.41518459 12.48406562 34.2281075 11 42.5625 C10.86795166 43.32643066 10.73590332 44.09036133 10.59985352 44.87744141 C9.6104416 50.43113524 8.45746519 55.94149248 7.1875 61.4375 C7.02540039 62.14455078 6.86330078 62.85160156 6.69628906 63.58007812 C5.87701167 66.99345694 4.88272695 69.96502737 3.25 73.0625 C3.89178192 73.06392502 4.53356384 73.06535004 5.1947937 73.06681824 C11.91186538 73.086599 18.62803853 73.14105187 25.34472656 73.21508789 C27.84693949 73.23819668 30.34924871 73.25264676 32.8515625 73.25805664 C36.46154291 73.26739775 40.07002358 73.3085053 43.6796875 73.35546875 C44.78738495 73.3515361 45.8950824 73.34760345 47.03634644 73.34355164 C54.41764064 73.4802916 60.08240928 74.87892689 66.25 79.0625 C73.02644344 86.85540996 72.62272001 96.46989544 72.62060547 106.23803711 C72.62492916 108.46353653 72.66116522 110.68696631 72.69921875 112.91210938 C72.80633159 126.27211939 71.54029866 139.7307301 62.390625 150.1875 C50.27118373 162.2067806 40.35113476 166.23010074 23.38330078 166.19189453 C22.4182814 166.19364685 21.45326202 166.19539917 20.45899963 166.19720459 C17.287752 166.20158566 14.11656064 166.19869973 10.9453125 166.1953125 C8.73810821 166.19598628 6.53090399 166.19695693 4.32369995 166.19821167 C-0.29104319 166.19968328 -4.90576693 166.19755008 -9.52050781 166.19287109 C-15.44920825 166.18715403 -21.37786361 166.19046866 -27.30656242 166.19644356 C-31.85826969 166.20004655 -36.40996616 166.19891215 -40.96167374 166.19631577 C-43.14905935 166.19564681 -45.33644593 166.19647384 -47.52383041 166.19879532 C-50.56913633 166.2013197 -53.61436765 166.19748522 -56.65966797 166.19189453 C-57.57079849 166.19391876 -58.48192902 166.19594299 -59.42066956 166.19802856 C-65.63573341 166.17676659 -65.63573341 166.17676659 -66.75 165.0625 C-66.87713858 162.2895819 -66.93925172 159.54103891 -66.95874023 156.76660156 C-66.96852402 155.89666565 -66.9783078 155.02672974 -66.98838806 154.13043213 C-67.0184167 151.23801216 -67.03974918 148.34563871 -67.05859375 145.453125 C-67.06516558 144.46735222 -67.0717374 143.48157944 -67.07850838 142.46593475 C-67.11113632 137.24716121 -67.13557753 132.02840837 -67.1550293 126.80957031 C-67.17284342 122.48504981 -67.2076604 118.16118125 -67.25756836 113.83691406 C-67.31768657 108.62262728 -67.34849404 103.40894519 -67.35820198 98.19432831 C-67.36677339 96.20555342 -67.38563282 94.2167954 -67.4149456 92.22821808 C-67.45378123 89.44341882 -67.45490526 86.66098148 -67.44702148 83.87597656 C-67.46702209 83.05395752 -67.48702271 82.23193848 -67.50762939 81.38500977 C-67.43800707 75.90679958 -67.43800707 75.90679958 -65.43903637 73.45372868 C-62.82676601 71.23892317 -59.9265965 69.40851838 -56.90234375 67.80859375 C-55.8800769 67.24845581 -55.8800769 67.24845581 -54.8371582 66.67700195 C-53.77307739 66.09438599 -53.77307739 66.09438599 -52.6875 65.5 C-44.24708787 60.70949582 -37.49716299 54.99626575 -30.75 48.0625 C-29.74646484 47.03769531 -29.74646484 47.03769531 -28.72265625 45.9921875 C-20.28792979 36.79441733 -21.51484883 27.92107517 -21.95507812 16.11328125 C-21.98150391 14.89769531 -22.00792969 13.68210937 -22.03515625 12.4296875 C-22.07519775 11.32737793 -22.11523926 10.22506836 -22.15649414 9.08935547 C-21.65264634 5.3375807 -20.34674948 3.75657486 -17.75 1.0625 C-12.44348908 -2.45745013 -5.89077173 -1.47269293 0 0 Z " fill="#7FB5B8" transform="translate(861.75,683.9375)"/>
<path d="M0 0 C4.4998577 4.11642931 8.07080981 8.6491085 11 14 C11 14.66 11 15.32 11 16 C14.16243942 13.02922357 16.756458 10.0116265 19.3125 6.5 C22.67466682 2.09036072 26.16319041 -0.40264348 31 -3 C32.3303125 -3.86625 32.3303125 -3.86625 33.6875 -4.75 C36.27134388 -6.14667237 38.07783704 -6.66793603 41 -7 C41.61359375 -7.07605469 42.2271875 -7.15210938 42.859375 -7.23046875 C50.8040542 -7.76687957 58.6138752 -5.00945789 65.140625 -0.53125 C76.09111091 9.53135867 80.92162874 24.35180898 81.57226562 38.81298828 C81.95337399 59.13523907 74.95568407 79.27270193 62 95 C61.44054687 95.7528125 60.88109375 96.505625 60.3046875 97.28125 C49.62548352 111.40103435 32.28542289 127.70169423 15 133 C9.22139397 132.81878936 5.12187212 130.8443476 0.25 128 C-0.4510083 127.59628174 -1.1520166 127.19256348 -1.87426758 126.77661133 C-8.1125861 123.09426557 -13.61331692 118.84491898 -19 114 C-19.52722656 113.5369043 -20.05445313 113.07380859 -20.59765625 112.59667969 C-39.72249402 95.79034023 -55.25352385 72.65429063 -57.2734375 46.453125 C-57.77499008 31.8221699 -54.57362541 19.10530851 -46 7 C-45.319375 5.948125 -44.63875 4.89625 -43.9375 3.8125 C-32.14007556 -9.72552804 -13.86959661 -9.29147071 0 0 Z " fill="#7FB5B8" transform="translate(852,361)"/>
<path d="M0 0 C8.72394582 6.63930816 15.73466832 17.67162812 17.9453125 28.48046875 C19.11703708 42.90899621 19.23956494 56.22478863 9.5703125 67.79296875 C8.36825556 69.02827408 7.16012189 70.2577021 5.9453125 71.48046875 C5.45804688 72.08503906 4.97078125 72.68960938 4.46875 73.3125 C-1.45134148 80.27999228 -11.72259754 84.16119009 -20.6796875 85.35546875 C-22.13713918 85.42109509 -23.59589452 85.46058741 -25.0546875 85.48046875 C-26.54548828 85.58875 -26.54548828 85.58875 -28.06640625 85.69921875 C-41.82481329 86.35050429 -51.92297791 80.42286919 -62.0546875 71.48046875 C-71.32442293 61.73682047 -75.71391526 49.09407395 -75.42578125 35.7890625 C-74.0549763 23.56725418 -68.77493466 12.20476561 -59.33984375 4.16796875 C-56.63947792 2.15288094 -53.89513733 0.29114825 -51.0546875 -1.51953125 C-50.44882812 -1.93976563 -49.84296875 -2.36 -49.21875 -2.79296875 C-34.16209578 -12.56143222 -14.52706348 -8.97584721 0 0 Z " fill="#7FB5B8" transform="translate(535.0546875,397.51953125)"/>
<path d="M0 0 C1.16582108 0.00666183 1.16582108 0.00666183 2.35519409 0.01345825 C3.23595612 0.01360931 4.11671814 0.01376038 5.02416992 0.01391602 C6.4523555 0.02939987 6.4523555 0.02939987 7.90939331 0.04519653 C9.37008743 0.04944138 9.37008743 0.04944138 10.86029053 0.05377197 C13.9783443 0.0649899 17.09611349 0.09009734 20.21408081 0.11550903 C22.32475375 0.12553675 24.43543119 0.13466296 26.54611206 0.14285278 C31.72719916 0.16493445 36.90811966 0.19842774 42.08908081 0.24050903 C43.22057772 4.75217036 43.22348238 9.17512728 43.2026062 13.79446411 C43.20275223 14.64375488 43.20289825 15.49304565 43.20304871 16.36807251 C43.202354 19.1654214 43.1945823 21.96270308 43.18673706 24.76004028 C43.18487131 26.70345524 43.18344815 28.64687066 43.18244934 30.59028625 C43.17863653 35.69811305 43.16881678 40.80591128 43.15774536 45.91372681 C43.14750468 51.12877008 43.14294603 56.34381798 43.13790894 61.55886841 C43.12719341 71.78609448 43.11013182 82.01329938 43.08908081 92.24050903 C36.71701909 92.26580729 30.34497027 92.28335399 23.97286987 92.29544067 C21.80391964 92.30047794 19.63497281 92.30730795 17.46603394 92.31594849 C14.35339518 92.32804055 11.24080122 92.33374331 8.12814331 92.33816528 C7.15414581 92.34332657 6.18014832 92.34848785 5.17663574 92.35380554 C4.27585297 92.35388107 3.37507019 92.3539566 2.44699097 92.35403442 C1.65201202 92.35625504 0.85703308 92.35847565 0.03796387 92.36076355 C-1.91091919 92.24050903 -1.91091919 92.24050903 -3.91091919 91.24050903 C-3.9571871 79.67090867 -3.9927601 68.10133018 -4.01454353 56.53165627 C-4.02499659 51.15983445 -4.03918348 45.78807576 -4.0617981 40.41629028 C-4.0834723 35.23567456 -4.09547634 30.05511968 -4.10067368 24.87446213 C-4.10437921 22.89443376 -4.11161481 20.91440885 -4.1223793 18.93440628 C-4.13682221 16.16869057 -4.13890017 13.40322882 -4.13796997 10.63748169 C-4.14516052 9.81245651 -4.15235107 8.98743134 -4.15975952 8.1374054 C-4.13189579 0.52004201 -4.13189579 0.52004201 0 0 Z " fill="#7FB5B8" transform="translate(728.9109191894531,757.7594909667969)"/>
</svg>
